<svg enable-background="new 0 0 1920 49.1" id="Layer_1" version="1.1" viewBox="0 0 1920 49.1" x="0px" xml:space="preserve" xmlns="http://www.w3.org/2000/svg" xmlns:xlink="http://www.w3.org/1999/xlink" y="0px"><path clip-rule="evenodd" d="M0,49.1h1920V27c-1.8-0.7-2.9-1.6-3.9-2.6c-1.2-0.9-2.4-1.7-4.4-2.1
  c0,0,0,0-0.3,0.1c-0.2,0,0-0.1-0.2-0.1c0.2,0,0.6,0,0.6,0c-0.4-0.1-0.6-0.2-1-0.2c-0.1-1,0.2-1.8-2.2-2.4c-2.7-0.5-4.3-0.1-4.5,1
  c-1.8,0.1-2.9,0.5-3.1,1.3c-0.4,0.2-0.9,0.3-1.5,0.6c-0.1,0.1,0,0.3-0.4,0.4c-0.1,0.1-0.8,0.3-1.3,0.3c-0.5,0.1-0.7,0.4-1.3,0.4
  c-0.5,0.2-0.9,0.3-1.6,0.5c-0.2,0-0.7,0.1-1.4,0.2c0,0.2,0.1,0.5-0.2,0.6c-0.3,0.1-0.8,0.2-0.9,0.3l-0.4,0c-0.5,0.2-0.8,0.2-1.3,0.3
  l0.1,0.1c-0.5,0.1-1.2,0.2-1.7,0.2l0.1,0.1c-0.1,0.1-0.8,0.2-1.3,0.4c-0.5,0.1-1,0.2-1.3,0.3c-0.5,0.1-1,0.2-1.7,0.3
  c-0.1,0.1-0.8,0.2-1.3,0.4c-0.6,0-1-0.2-1.2-0.3c-0.8,0.2-1.9-0.1-2.7,0.2c-0.5,0.1-1,0.1-1.4,0.3l-0.2,0c-1-0.2-2.1-0.5-2.4-1.1
  c-0.4-0.1-0.4-0.1-0.5-0.2l0.5,0.2c0.5-0.2,1-0.2,1.3-0.4l-0.5-0.3l0.4,0c0.1,0.1,0.1,0.1,0.2,0.3c0.5-0.1,1-0.2,1.7-0.3l-0.4-0.2
  c0.4,0,0.4,0,0.3-0.1c0,0.1,0.1,0.2,0.1,0.2c0.5-0.1,0.6-0.2,1.4-0.3c3.2,0.4,4.7-0.2,5.6-1.5c1.2,0.2,2.2,0.2,2.9-0.1
  c0.5-0.2,0.8-0.2,1.3-0.4l-0.1-0.2c0,0,0.2,0.1,0.2,0.2c0.4-0.1,0.9-0.2,1.5-0.4l-0.4-0.1c0.4,0,0.4,0.1,0.4,0.1
  c1.1,0,2.3-0.2,2.6-0.7c0,0-0.1-0.1-0.1-0.2l0.1,0.2c1.1,0,1.8-0.4,2-0.8c0,0,0,0-0.5-0.2c0.4,0,0.4,0,0.4,0l0.1,0.1
  c0.1-0.2,0.8-0.3,1.3-0.5l-0.4-0.1c0.4,0,0.4,0.1,0.4,0.1c0.9-0.1,1.2-0.5,1.2-0.9c1.2-0.2,1.6-0.5,1.7-1.1c0.5-0.1,1-0.2,1.6-0.4
  c-0.5-0.9,3.2-1.4,0.1-2.7c-1.9-0.7-3.9-0.3-5.5,0.5c-0.6,0-1.1,0.5-1.4,0.8c-0.4,0.2-0.8,0.3-1.3,0.4c-1.9,0.3-2.7,1.2-3.2,2.1
  c-0.5,0.1-1,0.2-1.5,0.4c0.1,0.2-0.2,0.4-0.1,0.5c0,0,0,0.1,0.1,0.1l-0.1-0.1c0,0,0,0,0,0c-0.1-0.2-0.2-0.4,0.1-0.5
  c-0.3,0.1-0.8,0.2-1.3,0.4c0.1,0.2,0.2,0.4-0.1,0.5l0.1,0.1c0,0-0.4,0-0.1-0.1c-0.9,0.1-1,0.3-1.6,0.4c-0.6,0-1,0.2-1.5,0.3
  c0.2,0,0.2,0,0.6,0.1l0.1,0.1l-0.7-0.2c-0.3,0.2-0.8,0.3-1.3,0.4c0,0,0.2,0.1,0.7,0.2c-0.5-0.2-0.4,0-0.4,0l-0.3-0.2
  c-0.7,0.2-0.8,0.3-1.5,0.4c0.1,0.1,0.1,0.2,0.5,0.3l-0.4,0l-0.1-0.2c-0.4,0.2-1,0.2-1.5,0.4c0.2,0,0.2,0,0.2,0.2l-0.2-0.2
  c-1.4-0.2-2.5-0.2-3.7,0.2c-11.6,2-23,4.2-36,5.5c-0.4,0-0.8,0.3-1.3,0.4c0.2,0.1,0.3,0.3,0.4,0.3l-0.4-0.3
  c-0.6,0.2-0.8,0.3-1.3,0.4l0.4,0.3l-0.2,0c-0.1-0.1-0.1-0.2-0.2-0.3c-3.6-0.5-5.4,0.5-7.2,1.2l0.3,0.3c0,0,0,0-0.2,0
  c-0.1-0.1-0.1-0.2-0.2-0.3c-2.1-0.4-4-0.4-5.7-0.1c-2.4,0.3-5.3,0.5-8,0.7c-0.5,0.1-1,0.2-1.6,0.4c-7.9,0.2-16.5,0.5-24.6,0.8
  c-3.4,0.2-7.3,0.4-10.1,1.3c-4-1-7.6-0.6-12-1.5c-1.1-0.3-2,0.2-3.1,0.6c-3.9-1.9-4.4-2.8-2.8-5.1l-0.4-0.2c-0.1,0-0.2-0.1-0.3-0.1
  l0.2,0l0.1,0.1c0.2,0.1,0.3,0.1,0.4,0.2c0.9-0.1,1.3-0.4,1.2-1c0.9-0.1,1.2-0.1,1.7-0.3c0.5-0.1,1.2-0.2,1.7-0.3
  c1.4-0.3,2.1-1,1-1.8c-0.7-0.7-1.7,0-2.3,0.2c-0.7,0.1-1.2,0.1-1.3,0.4c-0.7,0.1-1.3,0.1-1.7,0.3c-1.1-0.3-2-0.3-2.7,0.1
  c-1.7-1.2-6-2.2-3.4-3.8c0.5-0.2,1.4-0.2,1.7-0.3c1.7-0.3,4-0.6,1.8-2.2c-0.4,0.2-1,0.2-1.3,0.4c-0.5,0.1-1,0.2-1.8,0.2
  c0,0-0.9,0-0.9,0c-0.5,0-1.4,0.2-1.5,0.4c-8.7-2-11.4-5.1-7.5-8.8c-2.7-0.8-3.5-1.4-5.7-3.4c-1-0.6-1.7-0.8-2.8-1.1
  c-1.7-0.4-2.6-1.2-3-2c-0.7-0.3-0.8-0.6-1.4-0.9c-0.5-0.3-0.8-0.8-1-0.9c-4.8-0.9-9.6-1.7-14.3-2.5c-2.2-0.4-3.8,0.3-3.6,1.6
  c-1.9,0.3-1.3,1.4-1.7,2.2c-0.2,1-1.5,1.5-1.8,2.4c-2.3,2.5-7,3.8-8.4,6.6c0,0,0.4,0.1,0.6,0.1c0,0,0,0-0.5,0l-0.1-0.1
  c-3.8,0.7-5.6,2.4-7.7,4.2l0.2,0.1c0,0-0.2,0-0.2-0.1c-1.5,0.1-2.7,0.6-3,1.4c-1.7,0-2.7,0.6-2.8,1.3l0.4,0.1
  c-0.4,0-0.4-0.1-0.4-0.1c-0.6,0-1,0.3-1.7,0.3c-0.5,0-0.8,0.3-1.3,0.4c-1.6,0.9-4.1,1.6-4.5,2.9l0.1,0.2c0,0,0,0-0.1-0.2
  c-3.5,0.8-6.3,1.9-7.8,3.7l0.5,0.2c0,0,0,0-0.4,0c-0.1-0.1-0.1-0.2-0.1-0.2c-4.4,1.3-10.1,1.5-15.5,2.1c-2.3-0.4-4.5-0.8-6.7-0.7
  c-0.4,0.2-0.9,0.3-1.3,0.5c-3.3-0.6-5.3-0.4-7.1,0.6c0.2,0,0.2,0,0.2,0.1l-0.2-0.1c-0.3,0.1-0.9,0.1-1.4,0.3l0.2,0.1c0,0,0,0-0.6,0
  c0.4,0,0.4,0,0.3,0c-3.5-0.7-5.4,0.6-8.5,0.2c-0.4,0.2-0.6,0.3-1.3,0.4c-2.8-0.4-4.8,0.2-7,0.5c-1.2-0.2-1.8-0.2-2.9,0.2
  c-2.9-0.6-6-1.2-8.9-1.7c-0.7,0.1-1.2,0.1-1.7,0.3c-3.6-0.5-6.2,0.2-7.3,1.7c-5-1-9.5-1.4-11.3,0.9c-1.1-0.1-2.7-0.6-4-0.1
  c-0.2-0.1-0.6-0.1-1.2-0.3c-0.7,0.2-0.8,0.2-1.3,0.4c-0.7,0.1-1.2,0.3-1.7,0.3c0.2,0.4,0,0.8-0.3,1.3c0.1,0.2-0.1,0.4-0.1,0.6
  c-1.9-0.3-3-0.1-4.3,0.3c-1.3,0.4-2.1,1-1.1,1.9c1,0.8,2.3,0.5,3.3,0.6c1.6,0.2,3,0.5,4.1,1.4c-0.5,0.1-0.8,0.3-1.3,0.4
  c0,0.1,0,0.1,0,0.1l0-0.1c-4.8,1.1-10.3,0.9-15.7,0.9c-0.3,0.1-0.4,0.2-1.3,0.5c-0.9,0.1-2-0.3-2.8,0c-0.2-0.1-0.8-0.1-1.2-0.2
  c-0.4,0.3-0.9,0.4-1.5,0.5h-2.2c0,0,0,0,0,0c0,0,0,0,0,0h-0.5c0,0,0,0,0-0.1c0.2,0,0.4,0,0.6,0.1c0.9-0.4,2.5-0.3,3.7-0.5
  c-1.5-0.4-2.9-0.2-4.4-0.2c-0.1,0.2-0.8,0.3-1.3,0.4c-0.2-0.1-1-0.1-1.2-0.2c-0.3,0-1.2,0.1-1.4,0.2c-4.1,0.3-6-2.7-10.5-2.8
  c2.1-0.7,3.4-1,4.4-1.5c0.7-0.1,1-0.2,1.3-0.5c0.9,0,1.1-0.1,1.4-0.2c0.6,0,0.9,0,1.2,0.1c0.9,0,1.5,0,2.1-0.2l-0.4,0
  c-0.1-0.1-0.1-0.1-0.1-0.1c0.1,0.1,0.4,0.1,0.4,0.1c0.1-0.1,0.6-0.3,1.3-0.4c0.1-0.2,1-0.2,1.3-0.4c3.1,0.2,5.5-0.3,7.9-1
  c1.3-0.5,5.3,0.1,4.2-1.3c-1.2-1.3-3.7-0.4-5.9-1c-0.6-0.1-0.6-0.1-1-0.1c-1.3,0-1.9-0.1-3,0c-0.5,0.1-0.8,0.2-1.3,0.3
  c-0.8,0-0.8-0.1-1.4-0.2c-0.5,0.1-1,0.2-1.5,0.4l0.2,0c-0.9,0-1,0.3-1.7,0.3c-4.1-1.1-6.4-0.2-8.4,1c0,0.1-0.1,0.2-0.3,0.3
  c0,0.1,0,0.1,0,0.2c0,0,0,0-0.1-0.1c0,0,0.1,0,0.1-0.1c0-0.1,0-0.2,0.3-0.3c-1-0.2-2.1-0.4-2.8,0c0,0,0.1,0.1,0.5,0.2
  c0,0,0,0-0.4-0.1L1544,33c-0.6,0-1,0.2-1.4,0.3c0.1,0.1,0.1,0.1,0.5,0.2c-0.4,0-0.4,0-0.3,0.1c0.1,0.1,0,0.4-0.3,0.5
  c0.3-0.2,0.3-0.5,0.3-0.5l-0.1-0.2c-0.4,0.2-1,0.3-1.5,0.4c0.3,0.2,0.3,0.3,0.4,0.3l-0.4-0.3c-0.6,0.2-0.8,0.3-1.3,0.5l0,0
  c0,0,0,0,0.1,0.1c-0.1-0.1-0.4-0.1-0.1-0.1c-1-0.2-2.4-0.3-3.1,0.1c-0.1,0.1-1,0.3-1.3,0.4c-0.1,0.2,0,0.4-0.3,0.5l0.4,0.1
  c0,0-0.4,0-0.4-0.1c-0.9,0-2-0.2-2.7,0.2c-0.6,0-1,0.2-1.4,0.5c0.2,0,0.6,0,0.6,0l0.1,0.1l-0.6-0.1c-0.4,0-0.9,0.1-1.4,0.2
  c-1.2,0.1-2,0.2-2.9,0.8l0.4,0.2c-0.3-0.1-0.3-0.1-0.4-0.2c-4.3-0.5-7.1,0.1-9.7,1.2c0.1,0.1,0.2,0.1,0.3,0.2
  c0.1,0.1,0.1,0.1,0.1,0.1l-0.4-0.3c-1.1-0.3-2.3-0.3-2.8,0.1c-3.6,0.6-7.9,0.5-11.9,0.9c-2.4,0-4.7-0.1-6.3,0.6
  c-1-0.1-2.3-0.3-2.8,0.1l0.1,0.1c0.1,0.1,0,0,0.1,0.1c-0.1-0.1-0.1-0.1-0.1-0.2c-1-0.1-2-0.2-2.9,0.1l0.3,0.2c0,0-0.2-0.1-0.3-0.2
  c-1.7-0.3-3.6-0.5-5.1-0.3c-0.6,0-1.1,0.3-1.5,0.4c-2-0.1-3.6-0.3-5.6-0.5c-0.2,0.2-0.8,0.3-1.3,0.5c-4.7-0.8-9.2-0.5-13.8-1.5
  c-6.6-1.4-12.6-1.4-18.4-0.9c-8.2,0.6-16.5-1.2-25.1-2.7c-2.9-2.4-6-1.6-8.8-1.6c-5.1-0.3-9.7-0.2-14.9-0.8c-0.5,0-0.8,0.3-1.6,0.3
  c-7.4-0.7-15.1-1.1-22.7-2.1c-3.2-0.3-5.8-0.5-8.5-0.2c-5.1-0.8-10.5-2.2-15.7-2c-2.1,0.1-3.5-1.1-5.6-1.4c-0.4,0.1-0.9,0.3-1.3,0.4
  c-0.8-0.2-1.6-0.3-2.5-0.4c-1.3-0.2-2.2-0.4-2.8,0.1c-1.2-0.3-2.4-0.3-3,0c-0.3,0-0.8,0-1.1-0.1c0.1,0.1-0.3,0.4-0.2,0.5
  c0,0,0,0.1,0,0.1c-0.1-0.1-0.1-0.1-0.1-0.1c0,0,0,0,0,0c-0.1-0.2-0.1-0.4,0.2-0.5c-1.9-0.3-3.9-1.1-5.3-0.4c-0.7,0-1-0.2-1.2-0.3
  c-4.2-0.6-8.3-2.2-12.4-1.8c0,0,0.2,0.1,0.3,0.2l-0.3-0.2c-1-0.3-2.1-0.3-2.7,0.1l0.3,0.3l-0.2,0c-0.1-0.1-0.2-0.2-0.2-0.2
  c-1.3-0.2-2.7-0.5-3.9-0.8c-0.3,0.1-1.1,0.2-1.3,0.4c-1.5-0.3-3.1-0.8-4.1-0.2l0.1,0.2l-0.4,0c-0.1-0.1,0.3-0.2,0.3-0.2
  c-3.8-0.8-7.8-1.1-11.1-3.1c-1.5-0.8-3.7-1-5.6-1.1c-2,0-3.8-0.4-5.8-0.8c-0.9-0.3-1.9-0.5-2.7-0.6c-1-0.2-2.1-0.3-2.7,0
  c-2.7-0.5-5.4-0.9-8-1.5c-0.8-0.2-0.7-0.6-1.2-0.8c-1.4-0.4-2.6-0.5-4-0.9c-0.7,0.4-1.9,0-2.6,0.1c-1.7,0-2.6,0.2-4.4-0.1
  c-0.8,0.4-2.7-0.5-3.8-0.2c-0.8-0.1-1.9-0.3-2.7-0.5c-0.4,0.1-0.9,0.2-1.3,0.4c-1.5-0.3-2.9-0.5-4.3-0.7c-0.3,0-0.8,0.2-1.4,0.4
  l0.4,0.1c-0.4,0-0.4,0-0.3,0.2c-0.1-0.2-0.1-0.2-0.1-0.2c-9.2-1.2-17.8-0.8-27-1.5c-0.6,0-1.1,0.2-1.3,0.4l0.1,0.1
  c0,0,0.1,0.2-0.2,0.2c0.2-0.2-0.1-0.2,0.1-0.3c-2.6-0.4-4.6-1-6.7-1c-5.7,0.3-11.3-0.8-17-1.7c-4.4-0.6-8.2-0.9-12-0.3l0.4,0
  c0,0,0,0,0,0c0,0-0.4-0.1-0.4-0.1c-1.7-0.4-3.3-0.6-5.2-1.1c-0.2-0.2-0.5-0.5-1.2-0.8c-0.3-0.4-0.9-0.9-2-1
  c-7.6-1.3-15.3-2.6-20.9-0.3c-1.2,0-1.9,0-2.8-0.6c-4.8,0.2-9.1,1-14.2,0.9c-0.4,0.1-1,0.4-1.2,0.6c0,0,0.2,0,0.3,0.2
  c-0.2,0-0.2,0-0.2,0l-0.1-0.1c-4.4-0.5-8.9-1.7-13-1.3c1.7,1.2,3.3,0.5,4.8,1c0.1,0.1,0.1,0.1,0.4,0.3c0.5,0.1,0.6,0.1,1,0
  c3.1,0.8,5.7,2.7,9.2,1.8c0,0,0,0,0,0l0,0c1.7,0.4,3.5,0.9,5.2,1.1c6,0.4,12.3,2.5,17.7,1.6c-0.1-0.1-0.1-0.1-0.1-0.1l0,0l0.1,0.1
  c3.2,0.8,6.1,0.4,9.3,1.1c1.5,0.2,2.9,0.7,4.2,0.1c2.2,0.4,4.4,0.9,6.4,1.3c0.8-0.2,1.1-0.3,1.7-0.3c6.5,1,12.6,1.4,18.8,1.8
  c2.9,0.5,5.6,1,8.4,1.3c8.4,0.6,16.9,2.2,25.1,2.7c0-0.2,0.3-0.4,0.3-0.5c0-0.1-0.1-0.1-0.2-0.2c0.2,0,0.2,0,0.2,0l0,0
  c0,0,0,0.1,0,0.1c0.1,0.2,0.1,0.3-0.3,0.5c0.6-0.2,1.1-0.3,1.6-0.4c3.8,0.6,8,2.2,12,1.7l-0.1-0.1l0.1,0c0,0,0,0,0,0.1
  c3.1,1,5.8,2.2,9.2,1.9c-0.2,0.6-0.2,1.2-0.3,1.8c-0.1,1.3,1.7,1.6,3.7,2c0.5,0.4,0.3,0.6-0.1,0.7c-0.1,0.2-0.1,0.4-0.1,0.6
  c0,0,0.2,0,0.2,0.1l-0.2-0.1c-0.4,0.1-1,0.1-1.5,0.4c0.1,0.1,0,0-0.1,0c0,0,0,0,0.1,0c-1.8-0.3-3.6-0.3-5.3-0.4
  c-0.5,0-1.1,0.3-1.5,0.3c-4.4-0.5-8.3-0.9-12.1-0.3c0,0,0.1,0,0.1,0l-0.2,0c0,0,0.1,0,0.1,0c-2.1-0.3-4-1.1-5.6-0.4
  c-3.1-1.2-6.2-1.7-9.5-1.2c-0.7-0.2-1.5-0.3-2.2-0.4c-2-0.5-4-1.1-5.7-0.6c-1.7-0.4-3.4-0.6-5-0.8c-1.9-0.3-3.8-0.6-3.7,0.5
  c-0.1,0.8,1.7,0.8,3.1,1.2c0.1,0.2,0,0.4-0.1,0.6c0.1,0.1-0.3,0.2-0.2,0.5c-1.9-0.3-4-1-5.6-0.4c-1.6-0.1-3.5-1-5.1-0.3
  c1.2-0.1,2.8,0.2,4.1,0.7c0.4,0.1,0.7,0.2,1.1,0.3l-0.6,0c-0.2-0.1-0.4-0.2-0.5-0.2c-1.4-0.3-2.8-0.5-4.1-0.7c-0.3,0-0.8,0-1.3-0.2
  c-1.9-0.5-4-0.6-6.2-0.9c-5-0.6-9.1,0-14.1-1.2c-0.2,0.1-0.9,0.2-1.3,0.4c-4.3-0.7-8.5-2.2-12.3-1.2c-5.8-0.3-12-0.4-17.9-0.2
  l0.4,0.1l-0.3,0.1c-0.1-0.1-0.1-0.1-0.1-0.1c-4.2-0.9-8.7-1.7-13.2-2.6c-3-0.7-6.4-1.1-9.4-0.7l0.2,0.2l-0.1,0
  c0.1,0-0.1-0.1-0.1-0.2c-2.8-0.8-5.4-0.6-8-0.9c-0.5,0.2-1.1,0.2-1.4,0.5c-0.9,0.1-1.4,0.5-0.6,0.9c1.2,0.7,3,1.5,4.4,2.1
  c-0.5,1.4-4.8,0.2-5.5,1.3c1.4,0.7,2.5,0.5,3.4,0.5c0.6,0.2,0.7,0.5,1.1,0.7c-0.6,0.6-1.1,1.1-1.5,1.7c-3.2-0.7-6.6-1.1-9.6-0.6
  l0.3,0.1l-0.3,0l-0.1-0.1c-2.5-0.1-5.2-0.1-8.1-0.5c-3.7-0.6-6.3-0.1-8.4,1.1c-0.9,0.2-0.9,0.8-0.4,1.3c0.3,1.4-1.7,1.6-4.3,1.6
  c-4.1,0-7.9,0.2-12,0.1c3.5,1.9,6.8,1.3,10.2,2.1c3.4,1.1,7.1,1.5,10.5,2.1c0.3-0.1,1.1-0.1,1.4-0.4c1.5,0.3,3.1,0.7,4.1,0.1
  c0.3,0,0.6,0.2,1.1,0.3c0.8,0.2,1.3,0,2,0c0.3,0,0.8,0,1,0c0.5,0,0.5,0,0.9,0c2.7,0.1,1-1,0.6-1.7c0.1-0.4,0.4-0.8,0.3-1.2
  c3,0.4,6.4,1.7,9.5,1.2c1.4,0,2.7,0.1,4,0.1c1,0.2,1.8,0.3,2.7,0.6c-0.1,0.4-0.4,0.8-0.3,1.2c0,0.2,0.1,0.4,0.1,0.6
  c-0.5,0.2-1.1,0.2-1.6,0.4c-1.1,0.2-2.6,0.2-2.2,1c0.4,0.7,1.8,1,2.8,1c4,0.1,7.6,1,11.1,1.6c0.5-0.1,1.1-0.1,1.6-0.4
  c-0.4,0-0.8,0-1.1-0.2c-0.1,0-0.1,0-0.2,0c0,0,0,0-0.1-0.2c0.1,0.1,0.2,0.2,0.3,0.2c0.4,0,0.7,0.1,1.1,0.2c1.7,0,2.9-0.4,3-1.3
  c0.8-0.5,1.9,0.3,2.9,0c3.5,0.7,7.1,1.3,10.6,1.4c1.7,0.9,2.9,1.6,3.4,2h-74.9c-1-1.7-2.6-3.3-4.9-5c-0.2-0.9-0.7-1.7-3-2.2l-1,0.2
  c0,0,0-0.1-0.2-0.1c0.2-0.1,0.7,0,1.2-0.1c-1.1-2.3-3.4-4.4-9.3-6c-0.1-0.4-0.3-0.7-0.7-1.1c0.5-0.1,1-0.2,1.3-0.4
  c0.3,0,0.8,0,1.3,0.1c1.3-0.4,1.3-1,0.3-1.8c0-0.6,0.2-0.8,0.4-1.2c0.5-0.2,1-0.4,1.2-0.5c3.8-0.6,4.1-0.9,0.7-2.4
  c-0.6-0.3-1-0.6-1.3-0.8c-1.1-0.8-3-0.7-4.1-1.5c-0.5-0.1-0.6-0.2-0.8-0.2c0.1,0.1-0.1,0.3-0.3,0.5c0,0,0,0.1,0,0.1l-0.1,0
  c0,0,0.1-0.1,0.1-0.1c0-0.2,0-0.4,0.3-0.5c-0.9-0.3-1.9-0.4-3-0.7c-0.4-0.2-0.3-0.4,0.2-0.5c1.4-0.6,4.5,0.3,5.8-0.8
  c0,0-0.4,0-0.4-0.1l0.4,0.1c0.3,0,0.7-0.2,1.3-0.4c0.5,0,0.4-0.3,0.2-0.6c-1.8-1.2-3.5-1.5-5.6-1c-4-0.5-8.1-2.3-12.1-1.9
  c-0.4,0.1-0.6,0.2-1.1,0.3c-0.4,0-0.8,0-1.1,0c-4.5,0.3-3.2,2.3-2.6,4c-1.3-0.3-2.1-0.3-2.6,0.1c-2.9,0.6-0.5,1.4,0.9,2.2
  c-0.1-0.1,0.1-0.1,0.1-0.1l-0.1,0.1c0.3,0.2,0.7,0.6,1.3,0.8c0.2,0.3,0.6,0.6,1,0.9l0.1-0.1c-0.1,0.1-0.1,0.1-0.1,0.1
  c0.1,0,0.1,0.1,0.2,0.1c-9.8,0-19.8-0.5-29.5,0l0.6-0.1c-4.1-0.3-8.3-0.6-12.4-0.3c-4.5,0.3-7.8-0.5-10.7-1.9
  c-11.9,0.8-24.7,1.1-35.7,3c-5.2,0-11.6-1.5-15.5,0.6c-7.6,0.2-16.1-0.2-22.9,1.2l0.3,0c-4,0.9-9.6-0.8-13,0.7l0.2-0.1
  c-2,0.3-5,0.1-7,0.6l-0.8,0.3l-1-0.2c-4.7-0.2-9.3-0.5-14.3-0.7c-0.8,0.2-1.8,0.5-2.9,0.8c-14,0.6-28.1,1.1-42.1,1.7
  c-1,0.3-2.2,0.6-3.2,0.8c-11.9-0.1-23.4,0.9-35.8-0.2c-0.7,0.3-2.1,0.6-3.1,0.9c-1.1,0-2.1-0.1-3.1-0.1c-2.1-0.7-4.1-0.8-6.3-0.3
  c-8.3-0.3-16.6-1.3-23.3,0.3c-10.5,2.2-23.4,1.2-34.9,2.4c-5.7,0.7-10.5-2.4-15.9-2c-5.3,0.3-4.9,3.2-12.1,3.5
  c-7.8,0.4-15.6,0.3-23.4,0c0,0.3,0,0.7,0,1.1c-0.5-0.4-1-0.8,0-1.1c-1.3-0.1-2.3-0.1-3.3-0.1c0,0.3,0,0.7,0,1.1
  c-3.4-0.1-6.5-0.3-9.6-0.4c-1,0.3-2.2,0.7-3.2,1l-1,0.2l-1-0.2c-2.6-0.5-6.3,0.2-7.8-1.1c1.1-1.2,6.7-0.7,7.1-2.2
  c-10.6-1-16.9-0.1-20.4,3.2c-2.3-0.1-4.9-0.3-4.9-1.1c0.7-2.8-3.4-2.4-8.7-1.9c-4.7,0.5-5.4,1.8-5.3,3.3c-1,0-2-0.1-3.1-0.1
  c-1.2-0.3-2.3-0.3-3.3,0l0.5,0.3c-1.3-0.1-2.3-0.3-3.3-0.4c-3.9-0.3-9.9,0-8.2-2.4c1.1-1.8-1.2-2.4-5.7-2.6c-3.5,0-7.5-0.8-10.9,0.8
  c4.3,1.1,9.7,2.4,8.3,4.6c-3.9,0.8-8.5-0.3-12.7,0.4c-2.1-0.1-4.5-0.1-6.8-0.1c-6.6-2.4-6.6-2.4-7-7.6c-0.1-3.6,7.3-4.3,14.3-5.3
  c6.7,0.2,13.5,0.3,19.4,2.2c3.8,1.2,8.5,1.5,12.8,0.2c6.2,0.3,12.4,0.6,18.6,0.7c15.6,0.2,31.2,0.1,45.5-1.5l-0.3,0.1
  c8.3-0.6,17.4,0.7,25.9,0.2c3.2-1,7.6-1,12-0.8c1.5,0,3.1-0.1,4.5-0.2c3.1-0.3,6.5,0.2,9.5-0.2c10.4,0.3,19.8-0.1,29.1-1
  c-0.5-0.1-0.5-0.3-1-0.4c0,0,0,0,0.3,0l0.7,0.4c3.4,0,7.3,0.4,9.4-0.7l1.5-0.1l1.5,0.1c5.5,0.1,11.4,1.3,16.1-0.2
  c1.1-0.1,1.6-0.2,2.6-0.2c3.8,0.4,7.3-0.1,10.4-0.5c0.6,0,0.6,0,0.8-0.3c0.3-0.3,0-0.5-0.8-0.8c-8.2-2.1-16.7-3.6-26.8-2.3
  c-2.6,0.3-6.3,0.4-9.1,0.1c-19.8-2.4-37-0.9-54.3,1.6c0.5,0.1,0.7,0.2,1,0.3l-1-0.3c-2.6,0-4.7,0.1-6.3,0.8c-2.5,0-4.7,0.1-6.2,0.8
  c-2.1,0-3.9,0-6,0c-3.1-0.2-6.5-0.1-9.6-0.6c-14.7-2.5-29-1.7-43.3-1.1c-6.5,0.3-13.3,0.8-20.2-0.4c-5.4-0.9-11.9-2.3-9.2,1.8
  c0.6,1-3.6,1-6.2,0.9c-5.2-0.1-10.6-0.4-16.1-0.5c-0.5,0.1-1.5,0-2-0.2c-1.1-0.5-2.1-0.5-3.4-0.1c-0.7,0.2-1.5,0.1-2.5-0.1
  c-13.7-2.8-27.3-5.6-42.2-2.8c-2.3,0.1-4.7,0-6.8-0.5c-3-1.5-7.4-1.3-11.6-1.5c-12.1-0.6-24.1-1.1-36.3-1.6l-0.2,0.2
  c0,0.1,0,0.1,0,0.2c0-0.1,0-0.1,0-0.2l0,0c0-0.1,0.1-0.1,0.2-0.2c-5.3-2.2-12.6-1.2-19.1-2c-2.3-1.2-5.9-1.2-9.4-1.5
  c-1.7-0.8-4.3-1.1-7.1-1.4c-3.4-0.3-2.4,1.2-4.5,1.3c-1.5,0.1-3.2,0.6-3.7,1.1c-1,0.6-5.7,0.1-4.9,1.5c0.5,0.9,1.1,1.8,3.2,2.5
  c0.4,1.5,2.5,2.7,6.3,3.6l0.8-0.2c0,0,0,0,0,0.1c-0.3,0-0.5,0-0.8,0.1c1.9,2.3,4.3,4.6,6.2,6.9c-0.1,1.8,0.9,3.5,6.1,4.6l1.2-0.3
  c-0.2,0.1-0.7,0.2-1.2,0.3c1,1.1,1.9,2.1,2.7,3.2c-3.6,0-7.6-0.1-10.9,0.2c-3.7,0.3-5.5,1.6-5.8,2.8c-0.4,1.6,3.8,1.4,6.6,1.8
  c2.9,0.4,5.4,1.4,5.9,2.5c0.6,1.2-2.4,1.4-4.6,1.7h-99.3c0.1-0.5,0.1-1.1,0-1.9c-1.7,1.5-6.8,1.3-10.7,1.9h-16.9
  c4.1-0.7,8.1-1.5,12.1-2.3c-28.5-0.4-57.1-0.5-85.6-2c-2.1-0.2-4.1-0.3-6.3-0.4c-4.6-2-10.8-1.3-16.5-1.6c-3-0.2-5.9-0.5-9-0.7
  c-2.8-0.7-7-0.2-9.9-1.2c-1,0-2-0.2-2.8-0.4c-2.5-1.2-6.1-1.1-9.8-1.3c-1-0.1-2.1-0.3-3.1-0.3c-1.3-0.3-2.6-0.8-3.8-1
  c-3.9-0.2-7.6-0.3-11.4-0.5c-0.3,0-0.8,0-1,0.2c-0.3,0.3-0.3,0.4,0.7,0.8l-0.2,0c1,0.5,1.8,1,3.3,1.3l0-0.1c1.5,0.9,4.6,0.8,6.7,1.4
  c1,0,1.8,0.1,2.5,0.3c1.8,1,4.1,1.1,6.7,1.2c-1.1-0.3-2-0.6-2.8-1c-0.2-0.1-0.3-0.1-0.5-0.2c0,0,0,0,0.2,0c0.1,0.1,0.2,0.1,0.3,0.2
  c1,0.3,1.9,0.7,2.8,1c3.1,1.5,9.1,0.3,12.7,1.7l-0.3,0c2.8,1.1,7.3,0.5,9.8,1.5c5.7,2.4,13.5,1.4,20.2,1.9c1.8,0.1,3.6,0.3,5.8,0.5
  c3.5,1,8.2,0.4,12,1.2h-29.3c-8.5-0.9-17.1-1.7-25.9-2.2c-7.1-0.4-13.2-0.9-19,0.5c-1.1,0.2-1.8,0.1-2.3-0.3
  c-1.3-0.9-3.6-1.2-6.2-1.4c-5.9-2.1-12.9-1.3-19.4-1.9l-0.5,0.2c0,0,0,0.1,0,0.1c0-0.1,0-0.1,0-0.1l0,0c0.1-0.1,0.2-0.2,0.5-0.2
  c-2.6-1.4-6.7-1.4-10.4-1.3l0,0.1c-2.5-1.4-7.2-0.8-10.3-1.7c-0.8,0.1-1.6,0-2.1-0.3c-1.2-1-3.6-1.2-6.4-1.2
  c-4.3-0.9-8.4-1.6-12.1-0.2l0,0.2c0.5,1.2,4.3,1.1,5.9,1.8c-1.3,0.4-2.9,0.7-4.2,1.1c-1.8-0.1-3.9-0.3-5.4-0.6
  c-3.1-0.5-6.2-0.8-9.1,0l0-0.1c-0.7,0.1-1.3,0.3-2,0.4c0.7,0.2,1.2,0.4,1.9,0.6c0,0-0.1,0-0.1-0.1l0.2,0.1c0,0-0.1,0-0.1,0
  c0.5,0.5,1.7,0.9,2.7,1.3c1.3,1,3.8,1.2,6.4,1.5c0-0.1,0-0.2,0-0.3c0,0.1,0.3,0.1,0.3,0.1L96.1,37c1.3,0.9,3.6,1.2,6.1,1.4
  c0.3-0.1,0.6-0.3,1.1-0.3l-1.1,0.3c1.6,1.1,3.9,1.9,6.8,2.3H97.3c-2.3-0.4-4.7-0.1-7.2,0h-1.5c-0.9,0-1.7-0.1-2.6-0.3
  c-11.8-3-23.8-2.6-35.3-0.8c-1.4-0.9-4.4-0.8-6.5-1.4c0,0,0,0,0.1,0l-0.3-0.1c0.1,0,0.2,0,0.2,0.1c-3.3-1.6-9.1-0.4-12.8-1.7
  c0.2,0,0.2,0,0.2,0c-2-0.9-5.1-0.8-7.7-0.9c-0.6,0-1.1,0.3-1.6,0.4C15,35.1,7.8,34.4,0,34.3l0,2.5c1.8,0.4,3.7,0.6,5.7,0.7
  c2.6,1.5,6.2,1.3,9.9,1.6c-0.6-0.4-0.6-0.7-0.6-1c0.3,0,0.6,0,0.6,0c-0.6,0.3-0.6,0.6,0,1c2,0.7,4.8,0.7,7.1,1.3
  c1.1,0,1.6,0.1,2.5,0.3H0L0,49.1z M1911.1,33.7c-0.5,0.2-0.4,0.4-0.6,0.6c-0.1-0.2-0.1-0.2-0.1-0.2
  C1910.3,33.9,1910.6,33.7,1911.1,33.7z M1906.7,28.9C1906.7,28.9,1906.7,28.9,1906.7,28.9c0.1,0.1,0.1,0.1-0.3,0.1
  C1906.3,28.9,1906.3,28.9,1906.7,28.9z M1904.6,40.7L1904.6,40.7c-0.1,0-0.1,0-0.2,0C1904.5,40.7,1904.6,40.7,1904.6,40.7z
   M1901.9,30.6c0,0,0,0-0.2,0c0,0,0,0-0.1-0.1C1901.7,30.5,1901.7,30.6,1901.9,30.6z M1890.6,32.6c-0.4,0-0.9,0.1-1,0.2l-0.5-0.2
  C1890.1,32.6,1890.3,32.6,1890.6,32.6z M1889.1,33.2c0,0-0.2,0-0.1,0.1C1888.9,33.2,1888.9,33.2,1889.1,33.2z M1878.9,29.8
  c-0.2,0-0.1,0.1-0.5,0.1c0.4-0.1,0.1-0.2-0.1-0.4C1878.5,29.7,1878.8,29.7,1878.9,29.8z M1875.1,26l0.3-0.1c0.1,0.1-0.3,0.2-0.5,0.2
  c0,0,0,0-0.1-0.1L1875.1,26z M1868,34.2L1868,34.2C1868,34.2,1868,34.2,1868,34.2z M1860.1,35.2c0,0.1,0,0.1-0.3,0.1L1860.1,35.2z
   M1859.1,32.9c-0.2,0-0.1,0.2,0,0.3c0,0-0.2-0.3-0.2-0.3L1859.1,32.9z M1823.1,40.2l-0.2,0c0.1,0-0.2,0-0.2,0l0.2,0c0,0-0.1,0-0.2,0
  C1823.1,40.2,1823.1,40.2,1823.1,40.2z M1806.4,40.6c0,0,0.2-0.1,0.2-0.2C1806.6,40.5,1806.5,40.6,1806.4,40.6
  C1806.4,40.7,1806.3,40.7,1806.4,40.6l-0.1,0.1C1806.2,40.7,1806.3,40.6,1806.4,40.6z M1772.7,36.1c-2.1-0.4-2.5-1.2-3-2.1
  C1771,34.6,1772,35.3,1772.7,36.1z M1769.2,33.7c0.2,0,0.4,0,0.5,0.1l0,0C1769.6,33.8,1769.4,33.7,1769.2,33.7
  c-0.1,0-0.2-0.1-0.2-0.1C1769,33.6,1769.1,33.6,1769.2,33.7z M1762.7,32.9c-1-0.2-1.2-0.5-1.9-0.7
  C1761.5,32.4,1761.6,32.6,1762.7,32.9z M1753.1,37.9c0,0,0,0-0.2,0L1753.1,37.9z M1743,31.5c0,0,0,0,0.1,0.2
  c-0.5-0.2-0.5-0.2-0.7-0.3C1742.6,31.5,1743,31.5,1743,31.5z M1730.1,23.4C1730.1,23.4,1730.1,23.4,1730.1,23.4
  c0.7,0.2,1.2,0.4,1.8,0.6l-0.2,0C1730.8,24,1729.7,23.7,1730.1,23.4c-0.1,0-0.3-0.1-0.4-0.1C1729.7,23.3,1730,23.3,1730.1,23.4z
   M1729.6,26.4c0.1,0.1,0.1,0.1,0.1,0.2c0.1,0.1,0.1,0.2,0.1,0.2c-0.4,0,0,0-0.3,0.1c0.3-0.2,0.1-0.5-0.3-0.6
  C1729.6,26.4,1729.5,26.2,1729.6,26.4z M1719.8,32.7c0,0-0.2,0-0.5,0.1c0.3-0.1,0-0.1,0-0.1C1719.6,32.7,1719.8,32.7,1719.8,32.7z
   M1713.7,16.2l0.3-0.1c0.1,0.1,0.1,0.1,0.1,0.1S1714.1,16.2,1713.7,16.2c0,0,0,0-0.2,0C1713.6,16.2,1713.6,16.2,1713.7,16.2z
   M1702.9,35.4c0.2,0,0.4-0.2,0.4-0.2c0.2,0.3,0.4,0.7,0.8,1.1C1703.4,36,1702.4,35.9,1702.9,35.4z M1695.4,37.6
  c-0.1,0.1-0.1,0.1,0,0.2c-0.5-0.1-0.5,0-0.5-0.2C1694.8,37.6,1695.2,37.6,1695.4,37.6z M1684,34C1684.1,34,1684.1,34,1684,34
  C1684.3,34.1,1684.1,34.1,1684,34c0.1,0.1,0.1,0.2,0.1,0.2C1684.1,34.1,1684.1,34.1,1684,34c-0.1,0-0.4,0-0.4-0.1
  C1683.9,33.9,1684,34,1684,34z M1654.9,35c0,0,0.3,0.5-0.8,0.3c0,0-0.1-0.2-0.3-0.2C1654.1,35.2,1654.6,35.1,1654.9,35z M1646,31.1
  c0.1-0.1,0.4-0.2,0.4-0.2l0.1,0.1c-0.4,0-0.3,0.1-0.3,0.1c-0.1,0.1-0.1,0.1-0.1,0.1c0,0,0,0-0.4,0c0.4,0,0.3-0.2,0.5-0.2L1646,31.1z
   M1645.6,31.4c-0.2,0.3-0.6,0.6-0.9,0.8C1644.5,31.7,1645,31.6,1645.6,31.4z M1607.3,40.2c0,0.2-0.1,0.4-0.2,0.5h-0.2
  C1607,40.6,1607.2,40.4,1607.3,40.2z M1592.3,32.8c0.3,0.9-1.3,1.1-1.8,1.5C1591,33.9,1591.3,33.1,1592.3,32.8z M1588.3,34.9
  c-0.4,0-0.3,0.2-0.7,0.2c-0.2-0.4-0.6-0.7-0.5-1C1587.3,34.3,1587.8,34.6,1588.3,34.9z M1573.1,40.6c-0.4,0-0.3,0.1-0.3,0.1
  c-0.1-0.1-0.1-0.1-0.1-0.1S1572.7,40.6,1573.1,40.6z M1405.5,36.6c0.2,0,0.2,0,0.4,0c-0.1,0.1-0.6,0.1-0.7,0.2
  C1405.2,36.7,1405.3,36.7,1405.5,36.6z M1382.1,38.4c-0.2,0-0.3-0.1-0.3-0.1L1382.1,38.4z M1336,38.5c0.1,0.1,0.1,0.1,0.2,0.1
  c0,0-0.5,0.2-0.4,0.2C1335.6,38.7,1336.1,38.7,1336,38.5z M1332.6,34.2c0.1,0.1,0.1,0.1,0.2,0.4c-0.2,0-0.5-0.3-0.8-0.3
  C1332.2,34.3,1332.6,34.2,1332.6,34.2z M1305.5,24.3L1305.5,24.3l-0.1-0.2C1305.5,24.3,1305.5,24.3,1305.5,24.3z M1291.9,35.4
  c0.1,0.1,0,0-0.1,0.1C1291.9,35.4,1291.9,35.4,1291.9,35.4z M1278.3,22.1c0.3,0.1-0.1,0.1-0.4,0.2
  C1278.1,22.2,1278.2,22.2,1278.3,22.1z M1272.2,32.4c0-0.1-0.1-0.1-0.1-0.1C1272.1,32.3,1272.2,32.4,1272.2,32.4z M1270.9,31.3
  C1270.9,31.3,1270.9,31.3,1270.9,31.3c0,0-0.1,0-0.2,0C1270.8,31.3,1270.8,31.3,1270.9,31.3z M1270.1,31c0.2,0.1,0.3,0.2,0.5,0.3
  c-0.3-0.1-0.6-0.2-0.8-0.3C1270.2,31.1,1270.1,31,1270.1,31z M1257.5,37.8c0,0-0.3,0-0.3-0.1C1257.2,37.7,1257.2,37.7,1257.5,37.8z
   M1161.7,12.3c0,0,0.2,0,0.3,0.2l0,0L1161.7,12.3z M1251.7,23c0.2,0,0.2,0,0.2,0l0,0.1L1251.7,23z M1235.7,29l-0.2,0
  c0,0-0.1,0-0.1,0L1235.7,29z M1223.1,36c-0.1,0,0.1,0.2-0.1,0.2C1223,36.2,1223,36,1223.1,36z M1204.5,27.3c-0.2,0-0.1,0-0.4,0
  c0.3,0,0,0-0.1-0.1L1204.5,27.3z M1177.6,27.5c-0.2,0.1-0.3,0.1-0.2,0.3c-0.2,0-0.5,0-0.7-0.1C1176.7,27.4,1177.3,27.6,1177.6,27.5z
   M1116.4,35.4c0.1,0,0.1,0,0.2,0c0,0,0,0,0,0c0.1,0,0.2,0.1,0.4,0.1C1116.8,35.5,1116.6,35.5,1116.4,35.4z M1141.2,33.2
  c-0.2-0.3,0-0.6-0.1-0.9c0.2,0.2,0.7,0.3,0.9,0.3C1142.2,33,1141.5,33,1141.2,33.2z M1157.7,27.5c-0.4,0-0.9,0-0.9,0
  c0,0,0,0-0.1-0.2C1157.1,27.5,1157.1,27.3,1157.7,27.5z M1148.6,38.3c-0.2,0-0.2,0-0.1,0.1c0,0,0,0,0-0.1c0,0,0,0-0.1-0.2
  C1148.4,38.1,1148.5,38.3,1148.6,38.3z M1046.4,23.9c0,0.1,0.1,0.1,0.1,0.2c0,0,0,0,0,0l-0.8,0.1c-0.3,0-0.3,0-0.3,0
  c0.3-0.1,0.5,0,1.1-0.1C1046.4,24,1046.4,24,1046.4,23.9z M1034.9,16.4c0,0,0,0.1,0.3,0.2C1035,16.7,1035,16.5,1034.9,16.4
  C1034.9,16.5,1034.8,16.4,1034.9,16.4z M984.5,40.6c0,0,0,0.1,0.1,0.2h-1.7C983.3,40.7,983.8,40.6,984.5,40.6z M979.5,22.4
  c-0.8,0.4-1.1,0.7-1.1,1.1c0.3,0.5,0.5,1.1,0.7,1.6c0.1,0.2,0.1,0.4,0.1,0.5c0-0.2-0.1-0.3-0.1-0.5c-0.2-0.5-0.7-1.1-0.7-1.6
  c-0.4-0.6-0.9-1-1.7-1.3C977.7,22.2,978.5,22.4,979.5,22.4z M808,29.2c-0.5,0.3-1.5,0.4-2.1,0.7c-0.5-0.2-1.1-0.1-1.6-0.3
  C805.6,29.7,806.9,29.4,808,29.2z M756.7,37.4c-0.1,0-0.2,0-0.2,0C756.6,37.4,756.7,37.4,756.7,37.4z M752.5,39.1c0,0.1,0,0.1,0,0.2
  c0,0,0,0-0.3,0C752.5,39.2,752.5,39.2,752.5,39.1z M592.1,38.5c0,0,0.3,0,0.5,0c-1.5,0-3,0.2-4.2,0.6c0-0.2-0.2-0.1-0.2-0.3
  C589.6,38.8,590.6,38.6,592.1,38.5z M737.3,18.8c0,0.1,0,0.2,0,0.3c0-0.1,0-0.2-0.2-0.3L737.3,18.8z M507.1,14.7
  c0,0.1,0.2,0,0.5,0.1c-0.5-0.1-1.6-0.1-2.1-0.2C506,14.7,506.6,14.7,507.1,14.7z M502.3,28.8c0-0.1-0.3-0.2,0-0.2L502.3,28.8
  c0,0,0,0.1,0,0.1c2.4,0.6,3.9,1.6,6.1,2.3c0-0.1,0.4,0,0.5-0.1c0,0-0.1,0.1,0,0.1c-0.2,0-0.2,0-0.5,0c-4.8,0-5.9-1-6.1-2.3
  c-0.4-0.1-0.7-0.2-1.1-0.2C501.8,28.6,501.8,28.9,502.3,28.8z M433.2,11.9c0-0.3-0.2-0.6,0.3-0.8c0.5-0.2,1,0,1.3-0.1
  C434,11.4,433.2,11.6,433.2,11.9z M147.4,38.2c0,0,0,0,0.3,0c-0.5,0.3-0.5,0.5-0.3,0.7c0.2,0.2,0.4,0.3,0.4,0.6
  c0-0.2-0.3-0.4-0.4-0.6C147.1,38.7,147,38.5,147.4,38.2z M127.5,39c0.3-0.9,1.6-1.6,2.8-2.3C129.6,37.7,128.7,38.5,127.5,39
  c-0.1,0.3-0.1,0.6,0.1,1c-0.6-0.1-1.1-0.2-2.1-0.3C126.3,39.6,126.9,39.3,127.5,39z M112.5,40.7C112.5,40.7,112.5,40.7,112.5,40.7
  L112.5,40.7L112.5,40.7z" fill-rule="evenodd"></path></svg>
