<svg enable-background="new 0 0 1920 49.1" id="Layer_1" version="1.1" viewBox="0 0 1920 49.1" x="0px" xml:space="preserve" xmlns="http://www.w3.org/2000/svg" xmlns:xlink="http://www.w3.org/1999/xlink" y="0px"><path clip-rule="evenodd" d="M1920,0H0v22c1.8,0.7,2.9,1.6,3.9,2.6c1.2,0.9,2.4,1.7,4.4,2.1c0,0,0,0,0.3-0.1
  c0.2,0,0,0.1,0.2,0.1c-0.2,0-0.6,0-0.6,0c0.4,0.1,0.6,0.2,1,0.2c0.1,1-0.2,1.8,2.2,2.4c2.7,0.5,4.3,0.1,4.5-1
  c1.8-0.1,2.9-0.5,3.1-1.3c0.4-0.2,0.9-0.3,1.5-0.6c0.1-0.1,0-0.3,0.4-0.4c0.1-0.1,0.8-0.3,1.3-0.3c0.5-0.1,0.7-0.4,1.3-0.4
  c0.5-0.2,0.9-0.3,1.6-0.5c0.2,0,0.7-0.1,1.4-0.2c0-0.2-0.1-0.5,0.2-0.6c0.3-0.1,0.8-0.2,0.9-0.3l0.4,0c0.5-0.2,0.8-0.2,1.3-0.3
  l-0.1-0.1c0.5-0.1,1.2-0.2,1.7-0.2l-0.1-0.1c0.1-0.1,0.8-0.2,1.3-0.4c0.5-0.1,1-0.2,1.3-0.3c0.5-0.1,1-0.2,1.7-0.3
  c0.1-0.1,0.8-0.2,1.3-0.4c0.6,0,1,0.2,1.2,0.3c0.8-0.2,1.9,0.1,2.7-0.2c0.5-0.1,1-0.1,1.4-0.3l0.2,0c1,0.2,2.1,0.5,2.4,1.1
  c0.4,0.1,0.4,0.1,0.5,0.2l-0.5-0.2c-0.5,0.2-1,0.2-1.3,0.4l0.5,0.3l-0.4,0c-0.1-0.1-0.1-0.1-0.2-0.3c-0.5,0.1-1,0.2-1.7,0.3l0.4,0.2
  c-0.4,0-0.4,0-0.3,0.1c0-0.1-0.1-0.2-0.1-0.2c-0.5,0.1-0.6,0.2-1.4,0.3c-3.2-0.4-4.7,0.2-5.6,1.5c-1.2-0.2-2.2-0.2-2.9,0.1
  c-0.5,0.2-0.8,0.2-1.3,0.4l0.1,0.2c0,0-0.2-0.1-0.2-0.2c-0.4,0.1-0.9,0.2-1.5,0.4l0.4,0.1c-0.4,0-0.4-0.1-0.4-0.1
  c-1.1,0-2.3,0.2-2.6,0.7c0,0,0.1,0.1,0.1,0.2l-0.1-0.2c-1.1,0-1.8,0.4-2,0.8c0,0,0,0,0.5,0.2c-0.4,0-0.4,0-0.4,0l-0.1-0.1
  c-0.1,0.2-0.8,0.3-1.3,0.5l0.4,0.1c-0.4,0-0.4-0.1-0.4-0.1c-0.9,0.1-1.2,0.5-1.2,0.9c-1.2,0.2-1.6,0.5-1.7,1.1
  c-0.5,0.1-1,0.2-1.6,0.4c0.5,0.9-3.2,1.4-0.1,2.7c1.9,0.7,3.9,0.3,5.5-0.5c0.6,0,1.1-0.5,1.4-0.8c0.4-0.2,0.8-0.3,1.3-0.4
  c1.9-0.3,2.7-1.2,3.2-2.1c0.5-0.1,1-0.2,1.5-0.4c-0.1-0.2,0.2-0.4,0.1-0.5c0,0,0-0.1-0.1-0.1l0.1,0.1c0,0,0,0,0,0
  c0.1,0.2,0.2,0.4-0.1,0.5c0.3-0.1,0.8-0.2,1.3-0.4c-0.1-0.2-0.2-0.4,0.1-0.5l-0.1-0.1c0,0,0.4,0,0.1,0.1c0.9-0.1,1-0.3,1.6-0.4
  c0.6,0,1-0.2,1.5-0.3c-0.2,0-0.2,0-0.6-0.1l-0.1-0.1l0.7,0.2c0.3-0.2,0.8-0.3,1.3-0.4c0,0-0.2-0.1-0.7-0.2c0.5,0.2,0.4,0,0.4,0
  l0.3,0.2c0.7-0.2,0.8-0.3,1.5-0.4c-0.1-0.1-0.1-0.2-0.5-0.3l0.4,0l0.1,0.2c0.4-0.2,1-0.2,1.5-0.4C40,26,40,26,40,25.9l0.2,0.2
  c1.4,0.2,2.5,0.2,3.7-0.2c11.6-2,23-4.2,36-5.5c0.4,0,0.8-0.3,1.3-0.4c-0.2-0.1-0.3-0.3-0.4-0.3l0.4,0.3c0.6-0.2,0.8-0.3,1.3-0.4
  L82,19.2l0.2,0c0.1,0.1,0.1,0.2,0.2,0.3c3.6,0.5,5.4-0.5,7.2-1.2l-0.3-0.3c0,0,0,0,0.2,0c0.1,0.1,0.1,0.2,0.2,0.3
  c2.1,0.4,4,0.4,5.7,0.1c2.4-0.3,5.3-0.5,8-0.7c0.5-0.1,1-0.2,1.6-0.4c7.9-0.2,16.5-0.5,24.6-0.8c3.4-0.2,7.3-0.4,10.1-1.3
  c4,1,7.6,0.6,12,1.5c1.1,0.3,2-0.2,3.1-0.6c3.9,1.9,4.4,2.8,2.8,5.1l0.4,0.2c0.1,0,0.2,0.1,0.3,0.1l-0.2,0l-0.1-0.1
  c-0.2-0.1-0.3-0.1-0.4-0.2c-0.9,0.1-1.3,0.4-1.2,1c-0.9,0.1-1.2,0.1-1.7,0.3c-0.5,0.1-1.2,0.2-1.7,0.3c-1.4,0.3-2.1,1-1,1.8
  c0.7,0.7,1.7,0,2.3-0.2c0.7-0.1,1.2-0.1,1.3-0.4c0.7-0.1,1.3-0.1,1.7-0.3c1.1,0.3,2,0.3,2.7-0.1c1.7,1.2,6,2.2,3.4,3.8
  c-0.5,0.2-1.4,0.2-1.7,0.3c-1.7,0.3-4,0.6-1.8,2.2c0.4-0.2,1-0.2,1.3-0.4c0.5-0.1,1-0.2,1.8-0.2c0,0,0.9,0,0.9,0
  c0.5,0,1.4-0.2,1.5-0.4c8.7,2,11.4,5.1,7.5,8.8c2.7,0.8,3.5,1.4,5.7,3.4c1,0.6,1.7,0.8,2.8,1.1c1.7,0.4,2.6,1.2,3,2
  c0.7,0.3,0.8,0.6,1.4,0.9c0.5,0.3,0.8,0.8,1,0.9c4.8,0.9,9.6,1.7,14.3,2.5c2.2,0.4,3.8-0.3,3.6-1.6c1.9-0.3,1.3-1.4,1.7-2.2
  c0.2-1,1.5-1.5,1.8-2.4c2.3-2.5,7-3.8,8.4-6.6c0,0-0.4-0.1-0.6-0.1c0,0,0,0,0.5,0l0.1,0.1c3.8-0.7,5.6-2.4,7.7-4.2l-0.2-0.1
  c0,0,0.2,0,0.2,0.1c1.5-0.1,2.7-0.6,3-1.4c1.7,0,2.7-0.6,2.8-1.3l-0.4-0.1c0.4,0,0.4,0.1,0.4,0.1c0.6,0,1-0.3,1.7-0.3
  c0.5,0,0.8-0.3,1.3-0.4c1.6-0.9,4.1-1.6,4.5-2.9l-0.1-0.2c0,0,0,0,0.1,0.2c3.5-0.8,6.3-1.9,7.8-3.7l-0.5-0.2c0,0,0,0,0.4,0
  c0.1,0.1,0.1,0.2,0.1,0.2c4.4-1.3,10.1-1.5,15.5-2.1c2.3,0.4,4.5,0.8,6.7,0.7c0.4-0.2,0.9-0.3,1.3-0.5c3.3,0.6,5.3,0.4,7.1-0.6
  c-0.2,0-0.2,0-0.2-0.1l0.2,0.1c0.3-0.1,0.9-0.1,1.4-0.3l-0.2-0.1c0,0,0,0,0.6,0c-0.4,0-0.4,0-0.3,0c3.5,0.7,5.4-0.6,8.5-0.2
  c0.4-0.2,0.6-0.3,1.3-0.4c2.8,0.4,4.8-0.2,7-0.5c1.2,0.2,1.8,0.2,2.9-0.2c2.9,0.6,6,1.2,8.9,1.7c0.7-0.1,1.2-0.1,1.7-0.3
  c3.6,0.5,6.2-0.2,7.3-1.7c5,1,9.5,1.4,11.3-0.9c1.1,0.1,2.7,0.6,4,0.1c0.2,0.1,0.6,0.1,1.2,0.3c0.7-0.2,0.8-0.2,1.3-0.4
  c0.7-0.1,1.2-0.3,1.7-0.3c-0.2-0.4,0-0.8,0.3-1.3c-0.1-0.2,0.1-0.4,0.1-0.6c1.9,0.3,3,0.1,4.3-0.3c1.3-0.4,2.1-1,1.1-1.9
  c-1-0.8-2.3-0.5-3.3-0.6c-1.6-0.2-3-0.5-4.1-1.4c0.5-0.1,0.8-0.3,1.3-0.4c0-0.1,0-0.1,0-0.1l0,0.1c4.8-1.1,10.3-0.9,15.7-0.9
  c0.3-0.1,0.4-0.2,1.3-0.5c0.9-0.1,2,0.3,2.8,0c0.2,0.1,0.8,0.1,1.2,0.2c0.4-0.3,0.9-0.4,1.5-0.5h2.2c0,0,0,0,0,0c0,0,0,0,0,0h0.5
  c0,0,0,0,0,0.1c-0.2,0-0.4,0-0.6-0.1c-0.9,0.4-2.5,0.3-3.7,0.5c1.5,0.4,2.9,0.2,4.4,0.2c0.1-0.2,0.8-0.3,1.3-0.4
  c0.2,0.1,1,0.1,1.2,0.2c0.3,0,1.2-0.1,1.4-0.2c4.1-0.3,6,2.7,10.5,2.8c-2.1,0.7-3.4,1-4.4,1.5c-0.7,0.1-1,0.2-1.3,0.5
  c-0.9,0-1.1,0.1-1.4,0.2c-0.6,0-0.9,0-1.2-0.1c-0.9,0-1.5,0-2.1,0.2l0.4,0c0.1,0.1,0.1,0.1,0.1,0.1c-0.1-0.1-0.4-0.1-0.4-0.1
  c-0.1,0.1-0.6,0.3-1.3,0.4c-0.1,0.2-1,0.2-1.3,0.4c-3.1-0.2-5.5,0.3-7.9,1c-1.3,0.5-5.3-0.1-4.2,1.3c1.2,1.3,3.7,0.4,5.9,1
  c0.6,0.1,0.6,0.1,1,0.1c1.3,0,1.9,0.1,3,0c0.5-0.1,0.8-0.2,1.3-0.3c0.8,0,0.8,0.1,1.4,0.2c0.5-0.1,1-0.2,1.5-0.4l-0.2,0
  c0.9,0,1-0.3,1.7-0.3c4.1,1.1,6.4,0.2,8.4-1c0-0.1,0.1-0.2,0.3-0.3c0-0.1,0-0.1,0-0.2c0,0,0,0,0.1,0.1c0,0-0.1,0-0.1,0.1
  c0,0.1,0,0.2-0.3,0.3c1,0.2,2.1,0.4,2.8,0c0,0-0.1-0.1-0.5-0.2c0,0,0,0,0.4,0.1l0.1,0.1c0.6,0,1-0.2,1.4-0.3
  c-0.1-0.1-0.1-0.1-0.5-0.2c0.4,0,0.4,0,0.3-0.1c-0.1-0.1,0-0.4,0.3-0.5c-0.3,0.2-0.3,0.5-0.3,0.5l0.1,0.2c0.4-0.2,1-0.3,1.5-0.4
  c-0.3-0.2-0.3-0.3-0.4-0.3l0.4,0.3c0.6-0.2,0.8-0.3,1.3-0.5l0,0c0,0,0,0-0.1-0.1c0.1,0.1,0.4,0.1,0.1,0.1c1,0.2,2.4,0.3,3.1-0.1
  c0.1-0.1,1-0.3,1.3-0.4c0.1-0.2,0-0.4,0.3-0.5l-0.4-0.1c0,0,0.4,0,0.4,0.1c0.9,0,2,0.2,2.7-0.2c0.6,0,1-0.2,1.4-0.5
  c-0.2,0-0.6,0-0.6,0l-0.1-0.1l0.6,0.1c0.4,0,0.9-0.1,1.4-0.2c1.2-0.1,2-0.2,2.9-0.8l-0.4-0.2c0.3,0.1,0.3,0.1,0.4,0.2
  c4.3,0.5,7.1-0.1,9.7-1.2c-0.1-0.1-0.2-0.1-0.3-0.2c-0.1-0.1-0.1-0.1-0.1-0.1l0.4,0.3c1.1,0.3,2.3,0.3,2.8-0.1
  c3.6-0.6,7.9-0.5,11.9-0.9c2.4,0,4.7,0.1,6.3-0.6c1,0.1,2.3,0.3,2.8-0.1l-0.1-0.1c-0.1-0.1,0,0-0.1-0.1c0.1,0.1,0.1,0.1,0.1,0.2
  c1,0.1,2,0.2,2.9-0.1l-0.3-0.2c0,0,0.2,0.1,0.3,0.2c1.7,0.3,3.6,0.5,5.1,0.3c0.6,0,1.1-0.3,1.5-0.4c2,0.1,3.6,0.3,5.6,0.5
  c0.2-0.2,0.8-0.3,1.3-0.5c4.7,0.8,9.2,0.5,13.8,1.5c6.6,1.4,12.6,1.4,18.4,0.9c8.2-0.6,16.5,1.2,25.1,2.7c2.9,2.4,6,1.6,8.8,1.6
  c5.1,0.3,9.7,0.2,14.9,0.8c0.5,0,0.8-0.3,1.6-0.3c7.4,0.7,15.1,1.1,22.7,2.1c3.2,0.3,5.8,0.5,8.5,0.2c5.1,0.8,10.5,2.2,15.7,2
  c2.1-0.1,3.5,1.1,5.6,1.4c0.4-0.1,0.9-0.3,1.3-0.4c0.8,0.2,1.6,0.3,2.5,0.4c1.3,0.2,2.2,0.4,2.8-0.1c1.2,0.3,2.4,0.3,3,0
  c0.3,0,0.8,0,1.1,0.1c-0.1-0.1,0.3-0.4,0.2-0.5c0,0,0-0.1,0-0.1c0.1,0.1,0.1,0.1,0.1,0.1c0,0,0,0,0,0c0.1,0.2,0.1,0.4-0.2,0.5
  c1.9,0.3,3.9,1.1,5.3,0.4c0.7,0,1,0.2,1.2,0.3c4.2,0.6,8.3,2.2,12.4,1.8c0,0-0.2-0.1-0.3-0.2l0.3,0.2c1,0.3,2.1,0.3,2.7-0.1
  l-0.3-0.3l0.2,0c0.1,0.1,0.2,0.2,0.2,0.2c1.3,0.2,2.7,0.5,3.9,0.8c0.3-0.1,1.1-0.2,1.3-0.4c1.5,0.3,3.1,0.8,4.1,0.2l-0.1-0.2l0.4,0
  c0.1,0.1-0.3,0.2-0.3,0.2c3.8,0.8,7.8,1.1,11.1,3.1c1.5,0.8,3.7,1,5.6,1.1c2,0,3.8,0.4,5.8,0.8c0.9,0.3,1.9,0.5,2.7,0.6
  c1,0.2,2.1,0.3,2.7,0c2.7,0.5,5.4,0.9,8,1.5c0.8,0.2,0.7,0.6,1.2,0.8c1.4,0.4,2.6,0.5,4,0.9c0.7-0.4,1.9,0,2.6-0.1
  c1.7,0,2.6-0.2,4.4,0.1c0.8-0.4,2.7,0.5,3.8,0.2c0.8,0.1,1.9,0.3,2.7,0.5c0.4-0.1,0.9-0.2,1.3-0.4c1.5,0.3,2.9,0.5,4.3,0.7
  c0.3,0,0.8-0.2,1.4-0.4l-0.4-0.1c0.4,0,0.4,0,0.3-0.2c0.1,0.2,0.1,0.2,0.1,0.2c9.2,1.2,17.8,0.8,27,1.5c0.6,0,1.1-0.2,1.3-0.4
  l-0.1-0.1c0,0-0.1-0.2,0.2-0.2c-0.2,0.2,0.1,0.2-0.1,0.3c2.6,0.4,4.6,1,6.7,1c5.7-0.3,11.3,0.8,17,1.7c4.4,0.6,8.2,0.9,12,0.3
  l-0.4,0c0,0,0,0,0,0c0,0,0.4,0.1,0.4,0.1c1.7,0.4,3.3,0.6,5.2,1.1c0.2,0.2,0.5,0.5,1.2,0.8c0.3,0.4,0.9,0.9,2,1
  c7.6,1.3,15.3,2.6,20.9,0.3c1.2,0,1.9,0,2.8,0.6c4.8-0.2,9.1-1,14.2-0.9c0.4-0.1,1-0.4,1.2-0.6c0,0-0.2,0-0.3-0.2c0.2,0,0.2,0,0.2,0
  l0.1,0.1c4.4,0.5,8.9,1.7,13,1.3c-1.7-1.2-3.3-0.5-4.8-1c-0.1-0.1-0.1-0.1-0.4-0.3c-0.5-0.1-0.6-0.1-1,0c-3.1-0.8-5.7-2.7-9.2-1.8
  c0,0,0,0,0,0l0,0c-1.7-0.4-3.5-0.9-5.2-1.1c-6-0.4-12.3-2.5-17.7-1.6c0.1,0.1,0.1,0.1,0.1,0.1l0,0l-0.1-0.1
  c-3.2-0.8-6.1-0.4-9.3-1.1c-1.5-0.2-2.9-0.7-4.2-0.1c-2.2-0.4-4.4-0.9-6.4-1.3c-0.8,0.2-1.1,0.3-1.7,0.3c-6.5-1-12.6-1.4-18.8-1.8
  c-2.9-0.5-5.6-1-8.4-1.3c-8.4-0.6-16.9-2.2-25.1-2.7c0,0.2-0.3,0.4-0.3,0.5c0,0.1,0.1,0.1,0.2,0.2c-0.2,0-0.2,0-0.2,0l0,0
  c0,0,0-0.1,0-0.1c-0.1-0.2-0.1-0.3,0.3-0.5c-0.6,0.2-1.1,0.3-1.6,0.4c-3.8-0.6-8-2.2-12-1.7l0.1,0.1l-0.1,0c0,0,0,0,0-0.1
  c-3.1-1-5.8-2.2-9.2-1.9c0.2-0.6,0.2-1.2,0.3-1.8c0.1-1.3-1.7-1.6-3.7-2c-0.5-0.4-0.3-0.6,0.1-0.7c0.1-0.2,0.1-0.4,0.1-0.6
  c0,0-0.2,0-0.2-0.1l0.2,0.1c0.4-0.1,1-0.1,1.5-0.4c-0.1-0.1,0,0,0.1,0c0,0,0,0-0.1,0c1.8,0.3,3.6,0.3,5.3,0.4c0.5,0,1.1-0.3,1.5-0.3
  c4.4,0.5,8.3,0.9,12.1,0.3c0,0-0.1,0-0.1,0l0.2,0c0,0-0.1,0-0.1,0c2.1,0.3,4,1.1,5.6,0.4c3.1,1.2,6.2,1.7,9.5,1.2
  c0.7,0.2,1.5,0.3,2.2,0.4c2,0.5,4,1.1,5.7,0.6c1.7,0.4,3.4,0.6,5,0.8c1.9,0.3,3.8,0.6,3.7-0.5c0.1-0.8-1.7-0.8-3.1-1.2
  c-0.1-0.2,0-0.4,0.1-0.6c-0.1-0.1,0.3-0.2,0.2-0.5c1.9,0.3,4,1,5.6,0.4c1.6,0.1,3.5,1,5.1,0.3c-1.2,0.1-2.8-0.2-4.1-0.7
  c-0.4-0.1-0.7-0.2-1.1-0.3l0.6,0c0.2,0.1,0.4,0.2,0.5,0.2c1.4,0.3,2.8,0.5,4.1,0.7c0.3,0,0.8,0,1.3,0.2c1.9,0.5,4,0.6,6.2,0.9
  c5,0.6,9.1,0,14.1,1.2c0.2-0.1,0.9-0.2,1.3-0.4c4.3,0.7,8.5,2.2,12.3,1.2c5.8,0.3,12,0.4,17.9,0.2l-0.4-0.1l0.3-0.1
  c0.1,0.1,0.1,0.1,0.1,0.1c4.2,0.9,8.7,1.7,13.2,2.6c3,0.7,6.4,1.1,9.4,0.7l-0.2-0.2l0.1,0c-0.1,0,0.1,0.1,0.1,0.2
  c2.8,0.8,5.4,0.6,8,0.9c0.5-0.2,1.1-0.2,1.4-0.5c0.9-0.1,1.4-0.5,0.6-0.9c-1.2-0.7-3-1.5-4.4-2.1c0.5-1.4,4.8-0.2,5.5-1.3
  c-1.4-0.7-2.5-0.5-3.4-0.5c-0.6-0.2-0.7-0.5-1.1-0.7c0.6-0.6,1.1-1.1,1.5-1.7c3.2,0.7,6.6,1.1,9.6,0.6l-0.3-0.1l0.3,0l0.1,0.1
  c2.5,0.1,5.2,0.1,8.1,0.5c3.7,0.6,6.3,0.1,8.4-1.1c0.9-0.2,0.9-0.8,0.4-1.3c-0.3-1.4,1.7-1.6,4.3-1.6c4.1,0,7.9-0.2,12-0.1
  c-3.5-1.9-6.8-1.3-10.2-2.1c-3.4-1.1-7.1-1.5-10.5-2.1c-0.3,0.1-1.1,0.1-1.4,0.4c-1.5-0.3-3.1-0.7-4.1-0.1c-0.3,0-0.6-0.2-1.1-0.3
  c-0.8-0.2-1.3,0-2,0c-0.3,0-0.8,0-1,0c-0.5,0-0.5,0-0.9,0c-2.7-0.1-1,1-0.6,1.7c-0.1,0.4-0.4,0.8-0.3,1.2c-3-0.4-6.4-1.7-9.5-1.2
  c-1.4,0-2.7-0.1-4-0.1c-1-0.2-1.8-0.3-2.7-0.6c0.1-0.4,0.4-0.8,0.3-1.2c0-0.2-0.1-0.4-0.1-0.6c0.5-0.2,1.1-0.2,1.6-0.4
  c1.1-0.2,2.6-0.2,2.2-1c-0.4-0.7-1.8-1-2.8-1c-4-0.1-7.6-1-11.1-1.6c-0.5,0.1-1.1,0.1-1.6,0.4c0.4,0,0.8,0,1.1,0.2
  c0.1,0,0.1,0,0.2,0c0,0,0,0,0.1,0.2c-0.1-0.1-0.2-0.2-0.3-0.2c-0.4,0-0.7-0.1-1.1-0.2c-1.7,0-2.9,0.4-3,1.3c-0.8,0.5-1.9-0.3-2.9,0
  c-3.5-0.7-7.1-1.3-10.6-1.4c-1.7-0.9-2.9-1.6-3.4-2h74.9c1,1.7,2.6,3.3,4.9,5c0.2,0.9,0.7,1.7,3,2.2l1-0.2c0,0,0,0.1,0.2,0.1
  c-0.2,0.1-0.7,0-1.2,0.1c1.1,2.3,3.4,4.4,9.3,6c0.1,0.4,0.3,0.7,0.7,1.1c-0.5,0.1-1,0.2-1.3,0.4c-0.3,0-0.8,0-1.3-0.1
  c-1.3,0.4-1.3,1-0.3,1.8c0,0.6-0.2,0.8-0.4,1.2c-0.5,0.2-1,0.4-1.2,0.5c-3.8,0.6-4.1,0.9-0.7,2.4c0.6,0.3,1,0.6,1.3,0.8
  c1.1,0.8,3,0.7,4.1,1.5c0.5,0.1,0.6,0.2,0.8,0.2c-0.1-0.1,0.1-0.3,0.3-0.5c0,0,0-0.1,0-0.1l0.1,0c0,0-0.1,0.1-0.1,0.1
  c0,0.2,0,0.4-0.3,0.5c0.9,0.3,1.9,0.4,3,0.7c0.4,0.2,0.3,0.4-0.2,0.5c-1.4,0.6-4.5-0.3-5.8,0.8c0,0,0.4,0,0.4,0.1l-0.4-0.1
  c-0.3,0-0.7,0.2-1.3,0.4c-0.5,0-0.4,0.3-0.2,0.6c1.8,1.2,3.5,1.5,5.6,1c4,0.5,8.1,2.3,12.1,1.9c0.4-0.1,0.6-0.2,1.1-0.3
  c0.4,0,0.8,0,1.1,0c4.5-0.3,3.2-2.3,2.6-4c1.3,0.3,2.1,0.3,2.6-0.1c2.9-0.6,0.5-1.4-0.9-2.2c0.1,0.1-0.1,0.1-0.1,0.1l0.1-0.1
  c-0.3-0.2-0.7-0.6-1.3-0.8c-0.2-0.3-0.6-0.6-1-0.9L886,29c0.1-0.1,0.1-0.1,0.1-0.1c-0.1,0-0.1-0.1-0.2-0.1c9.8,0,19.8,0.5,29.5,0
  l-0.6,0.1c4.1,0.3,8.3,0.6,12.4,0.3c4.5-0.3,7.8,0.5,10.7,1.9c11.9-0.8,24.7-1.1,35.7-3c5.2,0,11.6,1.5,15.5-0.6
  c7.6-0.2,16.1,0.2,22.9-1.2l-0.3,0c4-0.9,9.6,0.8,13-0.7l-0.2,0.1c2-0.3,5-0.1,7-0.6l0.8-0.3l1,0.2c4.7,0.2,9.3,0.5,14.3,0.7
  c0.8-0.2,1.8-0.5,2.9-0.8c14-0.6,28.1-1.1,42.1-1.7c1-0.3,2.2-0.6,3.2-0.8c11.9,0.1,23.4-0.9,35.8,0.2c0.7-0.3,2.1-0.6,3.1-0.9
  c1.1,0,2.1,0.1,3.1,0.1c2.1,0.7,4.1,0.8,6.3,0.3c8.3,0.3,16.6,1.3,23.3-0.3c10.5-2.2,23.4-1.2,34.9-2.4c5.7-0.7,10.5,2.4,15.9,2
  c5.3-0.3,4.9-3.2,12.1-3.5c7.8-0.4,15.6-0.3,23.4,0c0-0.3,0-0.7,0-1.1c0.5,0.4,1,0.8,0,1.1c1.3,0.1,2.3,0.1,3.3,0.1
  c0-0.3,0-0.7,0-1.1c3.4,0.1,6.5,0.3,9.6,0.4c1-0.3,2.2-0.7,3.2-1l1-0.2l1,0.2c2.6,0.5,6.3-0.2,7.8,1.1c-1.1,1.2-6.7,0.7-7.1,2.2
  c10.6,1,16.9,0.1,20.4-3.2c2.3,0.1,4.9,0.3,4.9,1.1c-0.7,2.8,3.4,2.4,8.7,1.9c4.7-0.5,5.4-1.8,5.3-3.3c1,0,2,0.1,3.1,0.1
  c1.2,0.3,2.3,0.3,3.3,0l-0.5-0.3c1.3,0.1,2.3,0.3,3.3,0.4c3.9,0.3,9.9,0,8.2,2.4c-1.1,1.8,1.2,2.4,5.7,2.6c3.5,0,7.5,0.8,10.9-0.8
  c-4.3-1.1-9.7-2.4-8.3-4.6c3.9-0.8,8.5,0.3,12.7-0.4c2.1,0.1,4.5,0.1,6.8,0.1c6.6,2.4,6.6,2.4,7,7.6c0.1,3.6-7.3,4.3-14.3,5.3
  c-6.7-0.2-13.5-0.3-19.4-2.2c-3.8-1.2-8.5-1.5-12.8-0.2c-6.2-0.3-12.4-0.6-18.6-0.7c-15.6-0.2-31.2-0.1-45.5,1.5l0.3-0.1
  c-8.3,0.6-17.4-0.7-25.9-0.2c-3.2,1-7.6,1-12,0.8c-1.5,0-3.1,0.1-4.5,0.2c-3.1,0.3-6.5-0.2-9.5,0.2c-10.4-0.3-19.8,0.1-29.1,1
  c0.5,0.1,0.5,0.3,1,0.4c0,0,0,0-0.3,0l-0.7-0.4c-3.4,0-7.3-0.4-9.4,0.7l-1.5,0.1l-1.5-0.1c-5.5-0.1-11.4-1.3-16.1,0.2
  c-1.1,0.1-1.6,0.2-2.6,0.2c-3.8-0.4-7.3,0.1-10.4,0.5c-0.6,0-0.6,0-0.8,0.3c-0.3,0.3,0,0.5,0.8,0.8c8.2,2.1,16.7,3.6,26.8,2.3
  c2.6-0.3,6.3-0.4,9.1-0.1c19.8,2.4,37,0.9,54.3-1.6c-0.5-0.1-0.7-0.2-1-0.3l1,0.3c2.6,0,4.7-0.1,6.3-0.8c2.5,0,4.7-0.1,6.2-0.8
  c2.1,0,3.9,0,6,0c3.1,0.2,6.5,0.1,9.6,0.6c14.7,2.5,29,1.7,43.3,1.1c6.5-0.3,13.3-0.8,20.2,0.4c5.4,0.9,11.9,2.3,9.2-1.8
  c-0.6-1,3.6-1,6.2-0.9c5.2,0.1,10.6,0.4,16.1,0.5c0.5-0.1,1.5,0,2,0.2c1.1,0.5,2.1,0.5,3.4,0.1c0.7-0.2,1.5-0.1,2.5,0.1
  c13.7,2.8,27.3,5.6,42.2,2.8c2.3-0.1,4.7,0,6.8,0.5c3,1.5,7.4,1.3,11.6,1.5c12.1,0.6,24.1,1.1,36.3,1.6l0.2-0.2c0-0.1,0-0.1,0-0.2
  c0,0.1,0,0.1,0,0.2l0,0c0,0.1-0.1,0.1-0.2,0.2c5.3,2.2,12.6,1.2,19.1,2c2.3,1.2,5.9,1.2,9.4,1.5c1.7,0.8,4.3,1.1,7.1,1.4
  c3.4,0.3,2.4-1.2,4.5-1.3c1.5-0.1,3.2-0.6,3.7-1.1c1-0.6,5.7-0.1,4.9-1.5c-0.5-0.9-1.1-1.8-3.2-2.5c-0.4-1.5-2.5-2.7-6.3-3.6
  l-0.8,0.2c0,0,0,0,0-0.1c0.3,0,0.5,0,0.8-0.1c-1.9-2.3-4.3-4.6-6.2-6.9c0.1-1.8-0.9-3.5-6.1-4.6l-1.2,0.3c0.2-0.1,0.7-0.2,1.2-0.3
  c-1-1.1-1.9-2.1-2.7-3.2c3.6,0,7.6,0.1,10.9-0.2c3.7-0.3,5.5-1.6,5.8-2.8c0.4-1.6-3.8-1.4-6.6-1.8c-2.9-0.4-5.4-1.4-5.9-2.5
  c-0.6-1.2,2.4-1.4,4.6-1.7h99.3c-0.1,0.5-0.1,1.1,0,1.9c1.7-1.5,6.8-1.3,10.7-1.9h16.9c-4.1,0.7-8.1,1.5-12.1,2.3
  c28.5,0.4,57.1,0.5,85.6,2c2.1,0.2,4.1,0.3,6.3,0.4c4.6,2,10.8,1.3,16.5,1.6c3,0.2,5.9,0.5,9,0.7c2.8,0.7,7,0.2,9.9,1.2
  c1,0,2,0.2,2.8,0.4c2.5,1.2,6.1,1.1,9.8,1.3c1,0.1,2.1,0.3,3.1,0.3c1.3,0.3,2.6,0.8,3.8,1c3.9,0.2,7.6,0.3,11.4,0.5
  c0.3,0,0.8,0,1-0.2c0.3-0.3,0.3-0.4-0.7-0.8l0.2,0c-1-0.5-1.8-1-3.3-1.3l0,0.1c-1.5-0.9-4.6-0.8-6.7-1.4c-1,0-1.8-0.1-2.5-0.3
  c-1.8-1-4.1-1.1-6.7-1.2c1.1,0.3,2,0.6,2.8,1c0.2,0.1,0.3,0.1,0.5,0.2c0,0,0,0-0.2,0c-0.1-0.1-0.2-0.1-0.3-0.2c-1-0.3-1.9-0.7-2.8-1
  c-3.1-1.5-9.1-0.3-12.7-1.7l0.3,0c-2.8-1.1-7.3-0.5-9.8-1.5c-5.7-2.4-13.5-1.4-20.2-1.9c-1.8-0.1-3.6-0.3-5.8-0.5
  c-3.5-1-8.2-0.4-12-1.2h29.3c8.5,0.9,17.1,1.7,25.9,2.2c7.1,0.4,13.2,0.9,19-0.5c1.1-0.2,1.8-0.1,2.3,0.3c1.3,0.9,3.6,1.2,6.2,1.4
  c5.9,2.1,12.9,1.3,19.4,1.9l0.5-0.2c0,0,0-0.1,0-0.1c0,0.1,0,0.1,0,0.1l0,0c-0.1,0.1-0.2,0.2-0.5,0.2c2.6,1.4,6.7,1.4,10.4,1.3
  l0-0.1c2.5,1.4,7.2,0.8,10.3,1.7c0.8-0.1,1.6,0,2.1,0.3c1.2,1,3.6,1.2,6.4,1.2c4.3,0.9,8.4,1.6,12.1,0.2l0-0.2
  c-0.5-1.2-4.3-1.1-5.9-1.8c1.3-0.4,2.9-0.7,4.2-1.1c1.8,0.1,3.9,0.3,5.4,0.6c3.1,0.5,6.2,0.8,9.1,0l0,0.1c0.7-0.1,1.3-0.3,2-0.4
  c-0.7-0.2-1.2-0.4-1.9-0.6c0,0,0.1,0,0.1,0.1l-0.2-0.1c0,0,0.1,0,0.1,0c-0.5-0.5-1.7-0.9-2.7-1.3c-1.3-1-3.8-1.2-6.4-1.5
  c0,0.1,0,0.2,0,0.3c0-0.1-0.3-0.1-0.3-0.1l0.3-0.2c-1.3-0.9-3.6-1.2-6.1-1.4c-0.3,0.1-0.6,0.3-1.1,0.3l1.1-0.3
  c-1.6-1.1-3.9-1.9-6.8-2.3h11.7c2.3,0.4,4.7,0.1,7.2,0h1.5c0.9,0,1.7,0.1,2.6,0.3c11.8,3,23.8,2.6,35.3,0.8c1.4,0.9,4.4,0.8,6.5,1.4
  c0,0,0,0-0.1,0l0.3,0.1c-0.1,0-0.2,0-0.2-0.1c3.3,1.6,9.1,0.4,12.8,1.7c-0.2,0-0.2,0-0.2,0c2,0.9,5.1,0.8,7.7,0.9
  c0.6,0,1.1-0.3,1.6-0.4c7.4,0.9,14.6,1.6,22.4,1.6v-2.5c-1.8-0.4-3.7-0.6-5.7-0.7c-2.6-1.5-6.2-1.3-9.9-1.6c0.6,0.4,0.6,0.7,0.6,1
  c-0.3,0-0.6,0-0.6,0c0.6-0.3,0.6-0.6,0-1c-2-0.7-4.8-0.7-7.1-1.3c-1.1,0-1.6-0.1-2.5-0.3h25.2V0z M8.9,15.3c0.5-0.2,0.4-0.4,0.6-0.6
  c0.1,0.2,0.1,0.2,0.1,0.2C9.7,15.2,9.4,15.3,8.9,15.3z M13.3,20.1C13.3,20.1,13.3,20.1,13.3,20.1C13.3,20,13.3,20,13.7,20
  C13.7,20.1,13.7,20.1,13.3,20.1z M15.4,8.3L15.4,8.3c0.1,0,0.1,0,0.2,0C15.5,8.3,15.4,8.3,15.4,8.3z M18.1,18.5c0,0,0,0,0.2,0
  c0,0,0,0,0.1,0.1C18.3,18.6,18.3,18.5,18.1,18.5z M29.4,16.5c0.4,0,0.9-0.1,1-0.2l0.5,0.2C29.9,16.5,29.7,16.5,29.4,16.5z
   M30.9,15.8c0,0,0.2,0,0.1-0.1C31.1,15.8,31.1,15.8,30.9,15.8z M41.1,19.3c0.2,0,0.1-0.1,0.5-0.1c-0.4,0.1-0.1,0.2,0.1,0.4
  C41.5,19.4,41.2,19.3,41.1,19.3z M44.9,23.1l-0.3,0.1C44.5,23,44.8,23,45,23c0,0,0,0,0.1,0.1L44.9,23.1z M52,14.8L52,14.8
  C52,14.8,52,14.8,52,14.8z M59.9,13.8c0-0.1,0-0.1,0.3-0.1L59.9,13.8z M60.9,16.2c0.2,0,0.1-0.2,0-0.3c0,0,0.2,0.3,0.2,0.3
  L60.9,16.2z M96.9,8.9l0.2,0c-0.1,0,0.2,0,0.2,0l-0.2,0c0,0,0.1,0,0.2,0C96.9,8.9,96.9,8.9,96.9,8.9z M113.6,8.4
  c0,0-0.2,0.1-0.2,0.2C113.4,8.5,113.5,8.5,113.6,8.4C113.6,8.4,113.7,8.3,113.6,8.4l0.1-0.1C113.8,8.4,113.7,8.4,113.6,8.4z
   M147.3,13c2.1,0.4,2.5,1.2,3,2.1C149,14.5,148,13.8,147.3,13z M150.8,15.4c-0.2,0-0.4,0-0.5-0.1l0,0
  C150.4,15.2,150.6,15.3,150.8,15.4c0.1,0,0.2,0.1,0.2,0.1C151,15.5,150.9,15.4,150.8,15.4z M157.3,16.2c1,0.2,1.2,0.5,1.9,0.7
  C158.5,16.7,158.4,16.4,157.3,16.2z M166.9,11.2c0,0,0,0,0.2,0L166.9,11.2z M177,17.6c0,0,0,0-0.1-0.2c0.5,0.2,0.5,0.2,0.7,0.3
  C177.4,17.6,177,17.6,177,17.6z M189.9,25.6C189.9,25.6,189.9,25.6,189.9,25.6c-0.7-0.2-1.2-0.4-1.8-0.6l0.2,0
  C189.2,25.1,190.3,25.3,189.9,25.6c0.1,0,0.3,0.1,0.4,0.1C190.3,25.7,190,25.7,189.9,25.6z M190.4,22.7c-0.1-0.1-0.1-0.1-0.1-0.2
  c-0.1-0.1-0.1-0.2-0.1-0.2c0.4,0,0,0,0.3-0.1c-0.3,0.2-0.1,0.5,0.3,0.6C190.4,22.7,190.5,22.8,190.4,22.7z M200.2,16.3
  c0,0,0.2,0,0.5-0.1c-0.3,0.1,0,0.1,0,0.1C200.4,16.3,200.2,16.3,200.2,16.3z M206.3,32.9L206,33c-0.1-0.1-0.1-0.1-0.1-0.1
  S205.9,32.9,206.3,32.9c0,0,0,0,0.2,0C206.4,32.9,206.4,32.9,206.3,32.9z M217.1,13.6c-0.2,0-0.4,0.2-0.4,0.2
  c-0.2-0.3-0.4-0.7-0.8-1.1C216.6,13,217.6,13.1,217.1,13.6z M224.6,11.4c0.1-0.1,0.1-0.1,0-0.2c0.5,0.1,0.5,0,0.5,0.2
  C225.2,11.5,224.8,11.4,224.6,11.4z M236,15C235.9,15,235.9,15,236,15C235.7,15,235.9,15,236,15c-0.1-0.1-0.1-0.2-0.1-0.2
  C235.9,14.9,235.9,15,236,15c0.1,0,0.4,0,0.4,0.1C236.1,15.1,236,15.1,236,15z M265.1,14c0,0-0.3-0.5,0.8-0.3c0,0,0.1,0.2,0.3,0.2
  C265.9,13.9,265.4,13.9,265.1,14z M274,18c-0.1,0.1-0.4,0.2-0.4,0.2l-0.1-0.1c0.4,0,0.3-0.1,0.3-0.1c0.1-0.1,0.1-0.1,0.1-0.1
  c0,0,0,0,0.4,0c-0.4,0-0.3,0.2-0.5,0.2L274,18z M274.4,17.7c0.2-0.3,0.6-0.6,0.9-0.8C275.5,17.3,275,17.5,274.4,17.7z M312.7,8.8
  c0-0.2,0.1-0.4,0.2-0.5h0.2C313,8.5,312.8,8.6,312.7,8.8z M327.7,16.3c-0.3-0.9,1.3-1.1,1.8-1.5C329,15.2,328.7,15.9,327.7,16.3z
   M331.7,14.2c0.4,0,0.3-0.2,0.7-0.2c0.2,0.4,0.6,0.7,0.5,1C332.7,14.8,332.2,14.4,331.7,14.2z M346.9,8.4c0.4,0,0.3-0.1,0.3-0.1
  c0.1,0.1,0.1,0.1,0.1,0.1S347.3,8.4,346.9,8.4z M514.5,12.4c-0.2,0-0.2,0-0.4,0c0.1-0.1,0.6-0.1,0.7-0.2
  C514.8,12.3,514.7,12.3,514.5,12.4z M537.9,10.7c0.2,0,0.3,0.1,0.3,0.1L537.9,10.7z M584,10.5c-0.1-0.1-0.1-0.1-0.2-0.1
  c0,0,0.5-0.2,0.4-0.2C584.4,10.4,583.9,10.4,584,10.5z M587.4,14.8c-0.1-0.1-0.1-0.1-0.2-0.4c0.2,0,0.5,0.3,0.8,0.3
  C587.8,14.8,587.4,14.8,587.4,14.8z M614.5,24.8L614.5,24.8l0.1,0.2C614.5,24.8,614.5,24.8,614.5,24.8z M628.1,13.6
  c-0.1-0.1,0,0,0.1-0.1C628.1,13.6,628.1,13.6,628.1,13.6z M641.7,26.9c-0.3-0.1,0.1-0.1,0.4-0.2C641.9,26.8,641.8,26.9,641.7,26.9z
   M647.8,16.7c0,0.1,0.1,0.1,0.1,0.1C647.9,16.7,647.8,16.7,647.8,16.7z M649.1,17.7C649.1,17.7,649.1,17.7,649.1,17.7
  c0,0,0.1,0,0.2,0C649.2,17.7,649.2,17.7,649.1,17.7z M649.9,18.1c-0.2-0.1-0.3-0.2-0.5-0.3c0.3,0.1,0.6,0.2,0.8,0.3
  C649.8,18,649.9,18.1,649.9,18.1z M662.5,11.3c0,0,0.3,0,0.3,0.1C662.8,11.4,662.8,11.4,662.5,11.3z M758.3,36.7c0,0-0.2,0-0.3-0.2
  l0,0L758.3,36.7z M668.3,26.1c-0.2,0-0.2,0-0.2,0l0-0.1L668.3,26.1z M684.3,20.1l0.2,0c0,0,0.1,0,0.1,0L684.3,20.1z M696.9,13.1
  c0.1,0-0.1-0.2,0.1-0.2C697,12.9,697,13,696.9,13.1z M715.5,21.7c0.2,0,0.1,0,0.4,0c-0.3,0,0,0,0.1,0.1L715.5,21.7z M742.4,21.6
  c0.2-0.1,0.3-0.1,0.2-0.3c0.2,0,0.5,0,0.7,0.1C743.3,21.6,742.7,21.5,742.4,21.6z M803.6,13.6c-0.1,0-0.1,0-0.2,0c0,0,0,0,0,0
  c-0.1,0-0.2-0.1-0.4-0.1C803.2,13.5,803.4,13.6,803.6,13.6z M778.8,15.8c0.2,0.3,0,0.6,0.1,0.9c-0.2-0.2-0.7-0.3-0.9-0.3
  C777.8,16,778.5,16,778.8,15.8z M762.3,21.6c0.4,0,0.9,0,0.9,0c0,0,0,0,0.1,0.2C762.9,21.6,762.9,21.8,762.3,21.6z M771.4,10.7
  c0.2,0,0.2,0,0.1-0.1c0,0,0,0,0,0.1c0,0,0,0,0.1,0.2C771.6,10.9,771.5,10.7,771.4,10.7z M873.6,25.1c0-0.1-0.1-0.1-0.1-0.2
  c0,0,0,0,0,0l0.8-0.1c0.3,0,0.3,0,0.3,0c-0.3,0.1-0.5,0-1.1,0.1C873.6,25,873.6,25.1,873.6,25.1z M885.1,32.6c0,0,0-0.1-0.3-0.2
  C885,32.4,885,32.5,885.1,32.6C885.1,32.5,885.2,32.6,885.1,32.6z M935.5,8.5c0,0,0-0.1-0.1-0.2h1.7C936.7,8.4,936.2,8.5,935.5,8.5z
   M940.5,26.6c0.8-0.4,1.1-0.7,1.1-1.1c-0.3-0.5-0.5-1.1-0.7-1.6c-0.1-0.2-0.1-0.4-0.1-0.5c0,0.2,0.1,0.3,0.1,0.5
  c0.2,0.5,0.7,1.1,0.7,1.6c0.4,0.6,0.9,1,1.7,1.3C942.3,26.8,941.5,26.7,940.5,26.6z M1112.1,19.8c0.5-0.3,1.5-0.4,2.1-0.7
  c0.5,0.2,1.1,0.1,1.6,0.3C1114.4,19.4,1113.1,19.7,1112.1,19.8z M1163.3,11.7c0.1,0,0.2,0,0.2,0
  C1163.4,11.7,1163.3,11.7,1163.3,11.7z M1167.5,10c0-0.1,0-0.1,0-0.2c0,0,0,0,0.3,0C1167.5,9.9,1167.5,9.9,1167.5,10z M1327.9,10.5
  c0,0-0.3,0-0.5,0c1.5,0,3-0.2,4.2-0.6c0,0.2,0.2,0.1,0.2,0.3C1330.4,10.3,1329.4,10.4,1327.9,10.5z M1182.7,30.3c0-0.1,0-0.2,0-0.3
  c0,0.1,0,0.2,0.2,0.3L1182.7,30.3z M1412.9,34.3c0-0.1-0.2,0-0.5-0.1c0.5,0.1,1.6,0.1,2.1,0.2C1414,34.4,1413.4,34.3,1412.9,34.3z
   M1417.7,20.3c0,0.1,0.3,0.2,0,0.2L1417.7,20.3c0,0,0-0.1,0-0.1c-2.4-0.6-3.9-1.6-6.1-2.3c0,0.1-0.4,0-0.5,0.1c0,0,0.1-0.1,0-0.1
  c0.2,0,0.2,0,0.5,0c4.8,0,5.9,1,6.1,2.3c0.4,0.1,0.7,0.2,1.1,0.2C1418.2,20.5,1418.2,20.2,1417.7,20.3z M1486.8,37.2
  c0,0.3,0.2,0.6-0.3,0.8c-0.5,0.2-1,0-1.3,0.1C1486,37.6,1486.8,37.5,1486.8,37.2z M1772.6,10.9c0,0,0,0-0.3,0
  c0.5-0.3,0.5-0.5,0.3-0.7c-0.2-0.2-0.4-0.3-0.4-0.6c0,0.2,0.3,0.4,0.4,0.6C1772.9,10.4,1773,10.6,1772.6,10.9z M1792.5,10
  c-0.3,0.9-1.6,1.6-2.8,2.3C1790.4,11.4,1791.3,10.6,1792.5,10c0.1-0.3,0.1-0.6-0.1-1c0.6,0.1,1.1,0.2,2.1,0.3
  C1793.7,9.5,1793.1,9.7,1792.5,10z M1807.5,8.3C1807.5,8.3,1807.5,8.3,1807.5,8.3L1807.5,8.3L1807.5,8.3z" fill-rule="evenodd"></path></svg>
